<svg width="11" height="11" viewBox="0 0 11 11" fill="none" xmlns="http://www.w3.org/2000/svg">
<path d="M9.96251 1.04458C9.83017 0.911946 9.6505 0.837406 9.46313 0.837406C9.27577 0.837406 9.0961 0.911946 8.96376 1.04458L5.50001 4.50125L2.03626 1.0375C1.90392 0.904862 1.72425 0.830322 1.53688 0.830322C1.34952 0.830322 1.16985 0.904862 1.03751 1.0375C0.76126 1.31375 0.76126 1.76 1.03751 2.03625L4.50126 5.5L1.03751 8.96375C0.76126 9.24 0.76126 9.68625 1.03751 9.9625C1.31376 10.2388 1.76001 10.2388 2.03626 9.9625L5.50001 6.49875L8.96376 9.9625C9.24001 10.2388 9.68626 10.2388 9.96251 9.9625C10.2388 9.68625 10.2388 9.24 9.96251 8.96375L6.49876 5.5L9.96251 2.03625C10.2317 1.76708 10.2317 1.31375 9.96251 1.04458Z" fill="black"/>
</svg>
